<?xml version="1.0" encoding="utf-8"?>
<!-- Generator: Adobe Illustrator 18.1.0, SVG Export Plug-In . SVG Version: 6.00 Build 0)  -->
<!DOCTYPE svg PUBLIC "-//W3C//DTD SVG 1.1//EN" "http://www.w3.org/Graphics/SVG/1.1/DTD/svg11.dtd">
<svg version="1.1" id="Layer_1" xmlns="http://www.w3.org/2000/svg" xmlns:xlink="http://www.w3.org/1999/xlink" x="0px" y="0px"
	 viewBox="671.7 0 1039.2 925" enable-background="new 671.7 0 1039.2 925" xml:space="preserve">
<path fill="#B0B5C2" d="M786.7,0.8V232H1596V0.8H786.7z M786.7,347.7v566.5c0,0,0,11.6,11.6,11.6h786.1c0,0,11.6,0,11.6-11.6V347.7
	H786.7L786.7,347.7z M902.3,463.2h115.6v115.6H902.3V463.2z M1133.5,463.2h115.6v115.6h-115.6V463.2z M1364.7,463.2h115.6v115.6
	h-115.6V463.2L1364.7,463.2z M902.3,694.5h115.6v115.6H902.3V694.5z M1133.5,694.5h115.6v115.6h-115.6V694.5z"/>
</svg>
