<?xml version="1.0" encoding="utf-8"?>
<!-- Generator: Adobe Illustrator 18.1.0, SVG Export Plug-In . SVG Version: 6.00 Build 0)  -->
<!DOCTYPE svg PUBLIC "-//W3C//DTD SVG 1.1//EN" "http://www.w3.org/Graphics/SVG/1.1/DTD/svg11.dtd">
<svg version="1.1" id="Layer_1" xmlns="http://www.w3.org/2000/svg" xmlns:xlink="http://www.w3.org/1999/xlink" x="0px" y="0px"
	 viewBox="429.8 0 810.1 925" enable-background="new 429.8 0 810.1 925" xml:space="preserve">
<path fill="#B0B5C2" d="M771.2,0v115.6h-92.5c-80.9,0-138.8,69.4-138.8,138.8v57.8c0,80.9,46.3,138.8,127.2,161.9L967.8,555
	c11.6,0,34.7,34.7,34.7,46.2V659c0,11.6-11.6,23.1-23.1,23.1H690.3c-11.6,0-23.1,0-23.1-11.6V578H551.5v115.6
	c0,34.7,23.1,69.4,46.3,92.5c23.1,23.1,57.8,23.1,92.5,23.1h92.5V925h115.6V809.4h92.5c80.9,0,138.8-69.4,138.8-138.8v-57.8
	c0-80.9-46.3-138.8-127.2-161.9L701.8,370c-11.6,0-34.7-34.7-34.7-46.2V266c0-11.6,11.6-23.1,23.1-23.1h289.1
	c11.6,0,23.1,0,23.1,11.6v104.1H1118V242.8c0-34.7-23.1-69.4-46.3-92.5c-23.1-23.1-57.8-23.1-92.5-23.1h-92.4V11.6
	C886.8,0,771.2,0,771.2,0z"/>
</svg>
