<?xml version="1.0" encoding="utf-8"?>
<!-- Generator: Adobe Illustrator 18.1.0, SVG Export Plug-In . SVG Version: 6.00 Build 0)  -->
<!DOCTYPE svg PUBLIC "-//W3C//DTD SVG 1.1//EN" "http://www.w3.org/Graphics/SVG/1.1/DTD/svg11.dtd">
<svg version="1.1" id="Layer_1" xmlns="http://www.w3.org/2000/svg" xmlns:xlink="http://www.w3.org/1999/xlink" x="0px" y="0px"
	 viewBox="675 0 925 925" enable-background="new 675 0 925 925" xml:space="preserve">
<path fill="#B0B5C2" d="M1137.5,0C883.1,0,675,208.1,675,462.5S883.1,925,1137.5,925S1600,716.9,1600,462.5S1391.9,0,1137.5,0z
	 M1137.5,115.6c34.7,0,69.4,11.6,104.1,23.1c-23.1,23.1-57.8,46.2-46.3,69.4c0,23.1,80.9,11.6,80.9,57.8c0,34.7-46.3,46.2-11.6,80.9
	c34.7,46.2-69.4,115.6-80.9,161.9c0,92.5,92.5,115.6,173.4,115.6c46.3,0,57.8,23.1,57.8,46.2c-57.8,92.5-173.4,138.8-289.1,138.8
	c-46.3,0-80.9-11.6-127.2-23.1c23.1-46.2-34.7-150.3-92.5-185c-23.1-23.1-80.9-11.6-115.6-23.1c-11.6-34.7-23.1-57.8-23.1-92.5
	c0,0,11.6-11.6,23.1-11.6c23.1,0,46.3,46.2,69.4,34.7c23.1,0-80.9-150.3-34.7-185c23.1-11.6,69.4,46.2,57.8-23.1
	c-11.6-57.8,46.3-34.7,80.9-46.2c34.7-11.6,57.8-46.2,11.6-69.4c-11.6,0-11.6-11.6-23.1-23.1
	C1010.3,138.8,1068.1,115.6,1137.5,115.6L1137.5,115.6z M1403.4,242.8c23.1,23.1,34.7,57.8,46.3,80.9l0,0
	c0,11.6-11.6,11.6-23.1,23.1c-34.7,34.7-34.7-23.1-46.3-34.7c-11.6-11.6-69.4,0-80.9-11.6C1299.4,277.5,1357.2,254.4,1403.4,242.8z"
	/>
</svg>
